<svg width="35" height="34" viewBox="0 0 35 34" fill="none" xmlns="http://www.w3.org/2000/svg">
<path d="M17.0811 31.0096C24.9424 31.0096 31.3153 24.6988 31.3153 16.9143C31.3153 9.12974 24.9424 2.81909 17.0811 2.81909C9.21974 2.81909 2.84686 9.12974 2.84686 16.9143C2.84686 19.1691 3.38153 21.3002 4.33215 23.1902C4.58478 23.6924 4.66886 24.2665 4.5224 24.8085L3.6746 27.9462C3.30656 29.3083 4.56495 30.5543 5.94046 30.1899L9.10906 29.3504C9.65642 29.2054 10.2362 29.2887 10.7433 29.5387C12.6519 30.4801 14.804 31.0096 17.0811 31.0096Z" fill="white"/>
<path d="M11.1383 18.1124C10.4898 18.1124 9.96399 18.6331 9.96399 19.2753C9.96399 19.9175 10.4898 20.4381 11.1383 20.4381H19.75C20.3985 20.4381 20.9244 19.9175 20.9244 19.2753C20.9244 18.6331 20.3985 18.1124 19.75 18.1124H11.1383Z" fill="#FF1F1F"/>
<path d="M11.1383 12.6857C10.4898 12.6857 9.96399 13.2063 9.96399 13.8485C9.96399 14.4907 10.4898 15.0114 11.1383 15.0114H23.6644C24.313 15.0114 24.8388 14.4907 24.8388 13.8485C24.8388 13.2063 24.313 12.6857 23.6644 12.6857H11.1383Z" fill="#FF1F1F"/>
</svg>
