<svg version="1.0" xmlns="http://www.w3.org/2000/svg"  width="300.000000pt" height="169.000000pt" viewBox="0 0 300.000000 169.000000"  preserveAspectRatio="xMidYMid meet">  <g transform="translate(0.000000,169.000000) scale(0.100000,-0.100000)" fill="#000000" stroke="none"> <path d="M730 1524 c-42 -18 -86 -59 -106 -97 -21 -40 -21 -664 0 -704 35 -69 110 -113 190 -113 l55 0 -4 -33 c-2 -17 -7 -77 -9 -131 l-6 -100 133 132 134 132 345 0 c342 0 345 0 389 23 26 14 57 42 74 68 l30 44 0 330 0 330 -27 41 c-14 23 -44 52 -65 65 l-38 24 -530 2 c-458 2 -535 0 -565 -13z m1087 -54 c25 -11 51 -33 63 -52 19 -31 20 -50 20 -343 0 -293 -1 -312 -20 -343 -12 -19 -38 -41 -63 -52 -39 -18 -68 -20 -385 -20 l-343 0 -87 -84 -87 -84 3 75 c3 41 0 79 -4 83 -5 5 -38 10 -72 11 -77 3 -134 29 -162 74 -19 31 -20 49 -20 341 0 284 2 311 19 337 23 35 55 58 95 68 17 4 249 7 516 8 456 0 488 -1 527 -19z"/> <path d="M820 1205 c-9 -10 -10 -19 -3 -26 6 -6 179 -8 459 -7 441 3 449 3 449 23 0 20 -8 20 -446 23 -393 2 -448 0 -459 -13z"/> <path d="M814 955 c-3 -8 -3 -19 1 -25 4 -6 116 -10 334 -10 330 0 357 3 344 36 -8 21 -671 21 -679 -1z"/> <path d="M2007 1193 c-4 -3 -7 -15 -7 -25 0 -17 11 -18 130 -18 219 0 214 8 218 -335 4 -305 1 -338 -38 -377 -25 -25 -36 -28 -89 -28 -79 0 -106 -22 -98 -81 3 -22 3 -39 0 -39 -3 0 -23 20 -45 45 -67 76 -61 75 -390 75 -263 0 -295 2 -314 18 -31 24 -44 55 -44 100 0 27 -5 42 -16 46 -26 10 -34 -2 -34 -51 0 -57 23 -107 64 -136 30 -21 40 -22 339 -27 l308 -5 52 -55 c29 -30 72 -77 95 -105 l44 -50 -7 106 -8 107 67 4 c72 4 109 24 138 75 16 26 18 64 18 342 l1 313 -25 38 c-39 59 -74 70 -223 70 -71 0 -133 -3 -136 -7z"/> </g> </svg>