<svg width="23" height="24" viewBox="0 0 23 24" fill="none" xmlns="http://www.w3.org/2000/svg">
<path fill-rule="evenodd" clip-rule="evenodd" d="M11.6354 23.0965C17.8364 23.0965 22.8633 18.1186 22.8633 11.9782C22.8633 5.83779 17.8364 0.859985 11.6354 0.859985C5.43443 0.859985 0.407532 5.83779 0.407532 11.9782C0.407532 13.7568 0.829274 15.4378 1.57912 16.9286C1.77839 17.3248 1.84471 17.7776 1.72919 18.2051L1.06045 20.6802C0.770137 21.7545 1.76275 22.7374 2.84775 22.45L5.34712 21.7878C5.77888 21.6734 6.23617 21.7391 6.63624 21.9363C8.14171 22.6789 9.8393 23.0965 11.6354 23.0965ZM6.94779 12.9234C6.43622 12.9234 6.02149 13.3341 6.02149 13.8407C6.02149 14.3472 6.43622 14.7579 6.94779 14.7579H13.7407C14.2522 14.7579 14.667 14.3472 14.667 13.8407C14.667 13.3341 14.2522 12.9234 13.7407 12.9234H6.94779ZM6.02149 9.55994C6.02149 9.05336 6.43622 8.64268 6.94779 8.64268H16.8283C17.3399 8.64268 17.7546 9.05336 17.7546 9.55994C17.7546 10.0665 17.3399 10.4772 16.8283 10.4772H6.94779C6.43622 10.4772 6.02149 10.0665 6.02149 9.55994Z" fill="white"/>
</svg>
