<svg width="18" height="19" viewBox="0 0 18 19" fill="none" xmlns="http://www.w3.org/2000/svg">
<rect width="17.8947" height="18.4211" rx="4.80007" fill="#810000" fill-opacity="0.49"/>
<path opacity="0.5" d="M13.0334 11.9994H10.2579C9.98709 11.9994 9.76685 12.2231 9.76685 12.4982C9.76685 12.7738 9.98709 12.997 10.2579 12.997H13.0334C13.3042 12.997 13.5244 12.7738 13.5244 12.4982C13.5244 12.2231 13.3042 11.9994 13.0334 11.9994Z" fill="#FF7878"/>
<path d="M8.31344 6.12796L10.9431 8.2528C11.0065 8.30362 11.0173 8.39687 10.9678 8.46183L7.85033 12.524C7.65436 12.7749 7.36556 12.9169 7.05613 12.9221L5.35428 12.9431C5.26352 12.9441 5.1841 12.8813 5.16347 12.7911L4.77669 11.1095C4.70964 10.8004 4.77669 10.4809 4.97266 10.2346L8.10561 6.15311C8.15615 6.08762 8.24949 6.0761 8.31344 6.12796Z" fill="#FF7878"/>
<path opacity="0.5" d="M12.1215 6.98641L11.6145 7.61935C11.5634 7.6838 11.4716 7.69427 11.4082 7.64293C10.7918 7.14412 9.21348 5.86408 8.77557 5.50936C8.71161 5.45697 8.70285 5.3637 8.75443 5.29873L9.2434 4.69146C9.68698 4.12035 10.4607 4.06795 11.0848 4.56571L11.8017 5.13683C12.0957 5.36737 12.2917 5.67127 12.3588 5.99088C12.4362 6.34246 12.3536 6.68775 12.1215 6.98641Z" fill="#FF7878"/>
</svg>
