<svg version="1.0" xmlns="http://www.w3.org/2000/svg"  width="24.000000pt" height="24.000000pt" viewBox="0 0 300.000000 169.000000"  preserveAspectRatio="xMidYMid meet">  <g transform="translate(0.000000,169.000000) scale(0.100000,-0.100000)" fill="#000000" stroke="none"> <path d="M615 1525 l-25 -24 0 -681 0 -680 819 0 c772 0 820 1 825 18 5 16 43 192 72 332 7 36 25 119 39 185 14 66 32 152 40 190 8 39 19 84 24 101 13 44 -1 54 -76 54 -35 0 -63 2 -63 4 0 2 7 23 15 46 17 49 8 70 -31 70 -23 0 -23 2 -26 118 l-3 117 -498 0 -497 0 0 63 c0 53 -4 67 -25 87 l-24 25 -271 0 -271 0 -24 -25z m553 -38 c6 -7 12 -46 14 -87 l3 -75 498 -3 497 -2 0 -90 0 -90 -33 0 c-32 0 -32 0 -29 45 7 81 62 75 -707 75 -521 0 -690 -3 -699 -12 -9 -9 -12 -85 -12 -283 0 -246 -2 -281 -24 -388 -13 -65 -27 -121 -30 -124 -3 -4 -6 225 -6 508 0 387 3 518 12 527 18 18 501 17 516 -1z m894 -317 l5 -30 -589 0 c-462 0 -589 -3 -592 -12 -2 -7 -10 -34 -16 -60 -12 -46 -14 -48 -49 -48 -20 0 -42 -5 -49 -12 -9 -9 -12 11 -12 90 l0 102 649 0 649 0 4 -30z m162 -118 l-6 -32 -649 0 c-611 0 -649 1 -649 18 1 43 -14 42 661 44 354 2 645 3 647 2 1 0 -1 -15 -4 -32z m-1450 -111 c-4 -14 -13 -37 -20 -51 -12 -23 -13 -21 -14 31 0 61 6 75 26 58 9 -7 11 -21 8 -38z m1576 22 c0 -5 -7 -37 -14 -73 -8 -36 -41 -191 -75 -345 -33 -154 -63 -297 -67 -317 l-6 -38 -770 0 -770 0 6 27 c4 16 8 37 10 48 2 11 21 97 41 190 20 94 46 213 56 265 11 52 24 111 29 130 11 42 18 79 19 103 1 16 45 17 771 17 424 0 770 -3 770 -7z m-1697 -576 c-3 -18 -9 -39 -13 -47 -11 -20 -24 50 -15 80 11 34 34 7 28 -33z"/> <path d="M714 1425 c-18 -13 -18 -15 -2 -31 18 -18 48 -13 48 9 0 26 -25 38 -46 22z"/> <path d="M835 1426 c-11 -8 -16 -19 -12 -30 9 -24 268 -24 288 0 11 14 10 18 -6 30 -26 19 -243 20 -270 0z"/> </g> </svg>