<svg width="22" height="21" viewBox="0 0 22 21" fill="none" xmlns="http://www.w3.org/2000/svg">
<path d="M19.9361 6.30617L13.0634 0.807963C11.7203 -0.2623 9.62175 -0.272793 8.28917 0.79747L1.4164 6.30617C0.430083 7.09313 -0.168005 8.66705 0.0418502 9.90519L1.36394 17.8167C1.66823 19.59 3.31559 20.9856 5.10986 20.9856H16.2322C18.0055 20.9856 19.6843 19.5585 19.9886 17.8063L21.3107 9.8947C21.4996 8.66705 20.9015 7.09313 19.9361 6.30617ZM11.458 16.7885C11.458 17.2187 11.1012 17.5754 10.671 17.5754C10.2408 17.5754 9.88407 17.2187 9.88407 16.7885V13.6406C9.88407 13.2104 10.2408 12.8537 10.671 12.8537C11.1012 12.8537 11.458 13.2104 11.458 13.6406V16.7885Z" fill="white"/>
</svg>
