<svg width="18" height="18" viewBox="0 0 18 18" fill="none" xmlns="http://www.w3.org/2000/svg">
<path d="M6.75146 5.25C6.76055 3.61873 6.83288 2.73529 7.40917 2.15901C8.0682 1.5 9.12885 1.5 11.2502 1.5H12.0002C14.1215 1.5 15.1822 1.5 15.8411 2.15901C16.5002 2.81802 16.5002 3.87868 16.5002 6V12C16.5002 14.1213 16.5002 15.1819 15.8411 15.841C15.1822 16.5 14.1215 16.5 12.0002 16.5H11.2502C9.12885 16.5 8.0682 16.5 7.40917 15.841C6.83288 15.2647 6.76055 14.3812 6.75146 12.75" stroke="#5B6077" stroke-width="0.9375" stroke-linecap="round"/>
<path d="M11.25 9H1.5M1.5 9L4.125 6.75M1.5 9L4.125 11.25" stroke="#5B6077" stroke-width="0.9375" stroke-linecap="round" stroke-linejoin="round"/>
</svg>
