<svg width="16" height="16" viewBox="0 0 16 16" fill="none" xmlns="http://www.w3.org/2000/svg">
<path d="M13.947 11.7748H12.6996C12.6145 11.7748 12.5346 11.8128 12.4814 11.8798C12.3572 12.0338 12.2241 12.1824 12.0839 12.3237C11.5106 12.9095 10.8315 13.3765 10.0842 13.6986C9.30996 14.0324 8.4778 14.2037 7.63733 14.2022C6.7874 14.2022 5.96409 14.0319 5.19046 13.6986C4.44314 13.3765 3.76405 12.9095 3.19073 12.3237C2.61639 11.7397 2.15843 11.0477 1.8422 10.2857C1.51394 9.4959 1.34892 8.65718 1.34892 7.78947C1.34892 6.92177 1.51572 6.08304 1.8422 5.29323C2.15804 4.53059 2.61228 3.84403 3.19073 3.25529C3.76918 2.66655 4.44167 2.20281 5.19046 1.88036C5.96409 1.54705 6.7874 1.37677 7.63733 1.37677C8.48726 1.37677 9.31057 1.54524 10.0842 1.88036C10.833 2.20281 11.5055 2.66655 12.0839 3.25529C12.2241 3.3984 12.3554 3.54694 12.4814 3.69911C12.5346 3.76613 12.6162 3.80418 12.6996 3.80418H13.947C14.0588 3.80418 14.128 3.67737 14.0659 3.58136C12.705 1.42205 10.3237 -0.00721857 7.61781 2.74237e-05C3.3664 0.0108964 -0.0421904 3.53426 0.000394719 7.86918C0.0429799 12.1353 3.44624 15.5789 7.63733 15.5789C10.3362 15.5789 12.7067 14.1515 14.0659 11.9976C14.1262 11.9016 14.0588 11.7748 13.947 11.7748ZM15.5245 7.67535L13.0066 5.64647C12.9126 5.57039 12.7759 5.63922 12.7759 5.76059V7.13733H7.20438C7.12631 7.13733 7.06243 7.20255 7.06243 7.28225V8.29669C7.06243 8.3764 7.12631 8.44161 7.20438 8.44161H12.7759V9.81835C12.7759 9.93972 12.9143 10.0086 13.0066 9.93248L15.5245 7.9036C15.5414 7.89004 15.5551 7.87272 15.5646 7.85295C15.574 7.83317 15.5789 7.81147 15.5789 7.78947C15.5789 7.76748 15.574 7.74577 15.5646 7.726C15.5551 7.70623 15.5414 7.6889 15.5245 7.67535Z" fill="#21CDDA" fill-opacity="0.75"/>
</svg>
