<svg width="26" height="26" viewBox="0 0 26 26" fill="none" xmlns="http://www.w3.org/2000/svg">
<path opacity="0.5" d="M20.3115 9.74996V10.5127C20.3115 11.4282 20.5728 12.3231 21.0624 13.0847L22.2621 14.9513C23.358 16.6561 22.5214 18.9734 20.6154 19.5125C15.6296 20.9228 10.3705 20.9228 5.38456 19.5125C3.47864 18.9734 2.64206 16.6561 3.73789 14.9513L4.93762 13.0847C5.4272 12.3231 5.68844 11.4282 5.68844 10.5127V9.74996C5.68844 5.5618 8.96194 2.16663 13 2.16663C17.038 2.16663 20.3115 5.5618 20.3115 9.74996Z" fill="#F97316"/>
<path d="M13.8125 6.5C13.8125 6.05127 13.4487 5.6875 13 5.6875C12.5513 5.6875 12.1875 6.05127 12.1875 6.5V10.8333C12.1875 11.282 12.5513 11.6458 13 11.6458C13.4487 11.6458 13.8125 11.282 13.8125 10.8333V6.5Z" fill="#F97316"/>
<path d="M7.84677 20.0903C8.55196 22.2626 10.5925 23.833 12.9998 23.833C15.4072 23.833 17.4476 22.2626 18.1529 20.0903C14.7453 20.7298 11.2543 20.7298 7.84677 20.0903Z" fill="#F97316"/>
</svg>
