<svg width="50" height="50" viewBox="0 0 50 50" fill="none" xmlns="http://www.w3.org/2000/svg">
<path d="M8.16739 6.99591H41.739C43.5339 6.99591 44.989 8.45098 44.989 10.2459V39.6604C44.989 41.4553 43.5339 42.9104 41.739 42.9104H8.16739C6.37246 42.9104 4.91739 41.4553 4.91739 39.6604V10.2459C4.91739 8.45099 6.37246 6.99591 8.16739 6.99591Z" stroke="#FF1F1F" stroke-width="1.5"/>
<circle cx="15.5995" cy="15.5996" r="3.11787" fill="#FF1F1F"/>
<path d="M37.2622 14.3759L44.989 25.1935V39.6604C44.989 41.4553 43.5339 42.9104 41.739 42.9104H8.16739C6.37246 42.9104 4.91739 41.4553 4.91739 39.6604V33.539L13.0334 23.7998C13.8804 22.7834 15.4173 22.7137 16.3529 23.6492L21.4818 28.7781C22.2626 29.559 23.5627 29.4302 24.1753 28.5114L33.5591 14.4356C34.4326 13.1255 36.347 13.0946 37.2622 14.3759Z" fill="#FF1F1F" stroke="#FF1F1F" stroke-width="1.5"/>
</svg>
