<svg xmlns="http://www.w3.org/2000/svg" xmlns:xlink="http://www.w3.org/1999/xlink" width="40" zoomAndPan="magnify" viewBox="0 0 30 30.000001" height="40" preserveAspectRatio="xMidYMid meet" version="1.0"><defs><clipPath id="b6bf652626"><path d="M 4.332031 9 L 25.382812 9 L 25.382812 22.375 L 4.332031 22.375 Z M 4.332031 9 " clip-rule="nonzero"/></clipPath><clipPath id="132bd90a28"><path d="M 13 6.410156 L 17 6.410156 L 17 10 L 13 10 Z M 13 6.410156 " clip-rule="nonzero"/></clipPath></defs><g clip-path="url(#b6bf652626)"><path fill="#FFFFFF" d="M 25.378906 9.945312 C 25.378906 10.0625 25.378906 10.183594 25.378906 10.304688 C 25.167969 10.625 24.816406 10.769531 24.539062 11.007812 C 23.769531 11.425781 22.96875 11.710938 22.070312 11.628906 C 22.03125 11.625 21.992188 11.625 21.953125 11.621094 C 21.703125 11.546875 21.449219 11.472656 21.1875 11.390625 C 21.222656 11.65625 21.246094 11.898438 21.292969 12.140625 C 21.386719 12.605469 21.398438 13.085938 21.527344 13.542969 C 21.53125 13.585938 21.535156 13.625 21.535156 13.664062 C 21.539062 13.765625 21.523438 13.871094 21.589844 13.964844 C 21.59375 14.089844 21.5625 14.214844 21.628906 14.335938 C 21.636719 14.351562 21.640625 14.371094 21.648438 14.390625 L 21.644531 14.386719 C 21.65625 14.496094 21.65625 14.605469 21.679688 14.710938 C 21.847656 15.378906 22.011719 16.046875 22.195312 16.710938 C 22.332031 17.203125 22.394531 17.710938 22.605469 18.179688 C 22.570312 18.34375 22.691406 18.484375 22.683594 18.644531 C 22.671875 18.683594 22.691406 18.707031 22.726562 18.722656 C 22.730469 18.757812 22.734375 18.789062 22.742188 18.824219 C 22.9375 19.601562 23.136719 20.382812 23.335938 21.160156 C 23.335938 21.21875 23.335938 21.28125 23.335938 21.339844 C 23.273438 21.578125 23.164062 21.785156 22.976562 21.949219 C 22.914062 21.984375 22.851562 22.019531 22.789062 22.054688 C 22.121094 22.1875 21.738281 21.933594 21.585938 21.269531 C 21.539062 21.070312 21.472656 20.875 21.414062 20.679688 C 21.386719 20.367188 21.28125 20.078125 21.199219 19.777344 C 21.121094 19.4375 21.050781 19.09375 20.929688 18.761719 C 20.832031 18.277344 20.722656 17.792969 20.5625 17.324219 C 20.476562 16.914062 20.429688 16.492188 20.214844 16.121094 C 20.210938 16.058594 20.207031 16 20.199219 15.941406 C 20.214844 15.871094 20.210938 15.800781 20.152344 15.746094 C 20.144531 15.691406 20.136719 15.636719 20.128906 15.582031 C 20.125 15.558594 20.121094 15.539062 20.117188 15.519531 C 20.132812 15.488281 20.117188 15.480469 20.085938 15.484375 C 19.695312 15.457031 19.695312 15.457031 19.695312 15.828125 C 19.695312 17.578125 19.691406 19.324219 19.695312 21.074219 C 19.695312 21.320312 19.667969 21.550781 19.535156 21.761719 C 19.414062 21.875 19.292969 21.988281 19.136719 22.050781 L 19.148438 22.0625 L 19.140625 22.058594 L 19.128906 22.066406 C 19.105469 22.070312 19.085938 22.074219 19.066406 22.074219 C 19.046875 22.082031 19.027344 22.085938 19.007812 22.089844 C 18.417969 22.167969 17.984375 21.789062 17.984375 21.1875 C 17.980469 19.273438 18 17.359375 17.972656 15.445312 C 17.964844 14.765625 17.816406 14.09375 17.6875 13.421875 C 17.683594 13.382812 17.679688 13.34375 17.675781 13.300781 C 17.65625 13.164062 17.632812 13.023438 17.613281 12.882812 C 17.625 12.804688 17.628906 12.722656 17.585938 12.648438 C 17.523438 12.304688 17.550781 11.945312 17.390625 11.621094 C 17.386719 11.542969 17.382812 11.460938 17.382812 11.382812 C 17.375 11.363281 17.371094 11.347656 17.367188 11.328125 C 17.300781 11.160156 17.085938 11.101562 17.070312 10.902344 C 17.253906 10.773438 17.4375 10.644531 17.683594 10.472656 C 17.378906 10.515625 17.222656 10.679688 17.039062 10.78125 C 16.796875 10.914062 16.714844 11.101562 16.714844 11.386719 C 16.730469 14.652344 16.726562 17.921875 16.726562 21.1875 C 16.726562 21.703125 16.433594 22.070312 15.992188 22.125 C 15.503906 22.183594 15.164062 21.925781 15.023438 21.402344 C 15.023438 19.605469 15.027344 17.8125 15.023438 16.019531 C 15.023438 15.960938 15.066406 15.878906 14.976562 15.835938 C 14.75 15.765625 14.667969 15.847656 14.691406 16.082031 C 14.707031 16.226562 14.691406 16.378906 14.691406 16.527344 C 14.691406 18.074219 14.691406 19.617188 14.695312 21.164062 C 14.699219 21.476562 14.632812 21.75 14.367188 21.949219 C 13.832031 22.351562 13.234375 22.113281 12.984375 21.402344 C 12.984375 21.382812 12.984375 21.359375 12.980469 21.339844 C 12.984375 21.238281 12.988281 21.140625 12.988281 21.039062 C 12.992188 17.804688 12.992188 14.566406 12.992188 11.332031 C 12.992188 10.964844 12.5625 10.5625 12.179688 10.570312 C 12.316406 10.675781 12.507812 10.753906 12.589844 10.894531 C 12.710938 11.105469 12.40625 11.160156 12.347656 11.320312 C 12.332031 11.355469 12.316406 11.394531 12.308594 11.433594 C 12.257812 11.816406 12.160156 12.191406 12.15625 12.582031 C 12.152344 12.621094 12.148438 12.660156 12.144531 12.699219 C 12.101562 12.730469 12.097656 12.773438 12.105469 12.820312 C 12.101562 12.902344 12.09375 12.980469 12.085938 13.0625 C 12.039062 13.136719 12.03125 13.21875 12.042969 13.300781 C 12.039062 13.34375 12.035156 13.382812 12.03125 13.421875 C 11.929688 13.796875 11.894531 14.179688 11.859375 14.5625 C 11.855469 14.601562 11.851562 14.640625 11.847656 14.679688 C 11.800781 14.734375 11.792969 14.796875 11.804688 14.863281 C 11.800781 14.941406 11.792969 15.019531 11.785156 15.101562 C 11.734375 15.167969 11.734375 15.246094 11.734375 15.328125 C 11.734375 16.210938 11.738281 17.097656 11.742188 17.980469 C 11.742188 18.28125 11.742188 18.582031 11.742188 18.882812 C 11.742188 19.183594 11.742188 19.480469 11.742188 19.78125 C 11.742188 20.082031 11.742188 20.382812 11.742188 20.683594 C 11.707031 20.980469 11.78125 21.285156 11.679688 21.578125 C 11.667969 21.59375 11.664062 21.609375 11.667969 21.628906 C 11.46875 21.925781 11.191406 22.101562 10.828125 22.121094 C 10.789062 22.109375 10.75 22.097656 10.714844 22.089844 C 10.671875 22.082031 10.628906 22.074219 10.589844 22.066406 C 10.171875 21.863281 10.027344 21.535156 10.035156 21.074219 C 10.058594 19.945312 10.042969 18.816406 10.042969 17.691406 C 10.042969 17.023438 10.039062 16.351562 10.046875 15.683594 C 10.046875 15.546875 10.003906 15.476562 9.867188 15.472656 C 9.765625 15.46875 9.621094 15.398438 9.589844 15.554688 C 9.546875 15.765625 9.421875 15.957031 9.445312 16.179688 C 9.339844 16.472656 9.257812 16.773438 9.214844 17.082031 C 9.199219 17.097656 9.195312 17.117188 9.207031 17.136719 C 9.195312 17.15625 9.1875 17.175781 9.175781 17.195312 C 9.164062 17.253906 9.152344 17.316406 9.140625 17.378906 C 8.914062 18.152344 8.710938 18.929688 8.546875 19.722656 C 8.425781 20.03125 8.351562 20.351562 8.300781 20.679688 C 8.199219 21.019531 8.101562 21.359375 8 21.695312 C 7.71875 22.042969 7.371094 22.191406 6.925781 22.058594 C 6.90625 22.046875 6.886719 22.03125 6.867188 22.019531 C 6.777344 21.949219 6.691406 21.882812 6.601562 21.816406 C 6.585938 21.800781 6.574219 21.785156 6.5625 21.773438 L 6.554688 21.761719 C 6.539062 21.742188 6.519531 21.71875 6.503906 21.699219 C 6.496094 21.675781 6.488281 21.65625 6.476562 21.636719 C 6.464844 21.617188 6.453125 21.597656 6.445312 21.582031 L 6.441406 21.582031 C 6.335938 21.273438 6.449219 20.980469 6.496094 20.679688 C 6.511719 20.664062 6.515625 20.644531 6.503906 20.625 C 6.515625 20.605469 6.523438 20.585938 6.535156 20.570312 C 6.539062 20.335938 6.699219 20.140625 6.691406 19.902344 C 6.824219 19.554688 6.894531 19.1875 6.976562 18.820312 C 7.121094 18.242188 7.269531 17.664062 7.414062 17.085938 C 7.527344 16.671875 7.644531 16.253906 7.75 15.839844 C 7.941406 15.085938 8.152344 14.335938 8.191406 13.554688 C 8.277344 13.421875 8.246094 13.269531 8.253906 13.125 C 8.308594 13.050781 8.308594 12.96875 8.296875 12.882812 C 8.304688 12.84375 8.308594 12.804688 8.3125 12.765625 C 8.363281 12.476562 8.410156 12.183594 8.464844 11.894531 C 8.558594 11.417969 8.542969 11.398438 8.074219 11.535156 C 7.972656 11.566406 7.847656 11.53125 7.765625 11.621094 C 7.722656 11.625 7.683594 11.625 7.644531 11.628906 C 6.777344 11.699219 5.988281 11.453125 5.242188 11.035156 C 5.230469 11.019531 5.210938 11.011719 5.191406 11.019531 C 5.144531 10.953125 5.078125 10.917969 5.003906 10.898438 L 5.007812 10.898438 C 4.964844 10.832031 4.898438 10.800781 4.828125 10.773438 L 4.832031 10.777344 C 4.65625 10.628906 4.464844 10.5 4.339844 10.304688 C 4.339844 10.183594 4.339844 10.0625 4.339844 9.945312 C 4.539062 9.632812 4.800781 9.511719 5.160156 9.652344 C 5.261719 9.785156 5.398438 9.867188 5.546875 9.941406 C 6.011719 10.277344 6.511719 10.535156 7.101562 10.554688 C 7.289062 10.558594 7.410156 10.609375 7.480469 10.796875 C 7.523438 10.921875 7.644531 10.988281 7.773438 11.039062 C 8.125 11.175781 8.660156 10.945312 8.921875 10.488281 C 8.683594 10.636719 8.503906 10.746094 8.324219 10.863281 C 8.171875 10.960938 8.019531 10.996094 7.84375 10.925781 C 7.421875 10.753906 7.386719 10.320312 7.765625 9.945312 C 7.847656 9.890625 7.929688 9.835938 8.015625 9.78125 C 8.378906 9.601562 8.730469 9.398438 9.121094 9.265625 C 9.308594 9.203125 9.390625 9.222656 9.492188 9.40625 C 10.054688 10.421875 11.367188 10.59375 12.179688 9.769531 C 12.328125 9.625 12.417969 9.308594 12.722656 9.566406 C 12.742188 9.582031 12.820312 9.515625 12.875 9.492188 C 13.054688 9.402344 13.234375 9.320312 13.410156 9.234375 C 13.550781 9.164062 13.652344 9.183594 13.777344 9.292969 C 14.375 9.804688 15.234375 9.84375 15.847656 9.363281 C 16.070312 9.1875 16.230469 9.203125 16.453125 9.292969 C 16.695312 9.394531 16.902344 9.644531 17.21875 9.472656 C 17.308594 9.421875 17.339844 9.539062 17.386719 9.601562 C 18.191406 10.617188 19.625 10.503906 20.25 9.367188 C 20.335938 9.210938 20.410156 9.199219 20.550781 9.253906 C 20.789062 9.351562 21.03125 9.4375 21.269531 9.53125 C 21.496094 9.667969 21.722656 9.804688 21.953125 9.945312 C 21.984375 9.980469 22.019531 10.015625 22.054688 10.050781 C 22.261719 10.257812 22.285156 10.523438 22.125 10.746094 C 21.953125 10.972656 21.664062 11.027344 21.40625 10.871094 C 21.246094 10.777344 21.09375 10.660156 20.929688 10.570312 C 20.847656 10.527344 20.765625 10.421875 20.636719 10.503906 C 20.871094 10.667969 21.09375 10.828125 21.324219 10.972656 C 21.65625 11.179688 22.082031 11.117188 22.234375 10.796875 C 22.332031 10.585938 22.476562 10.566406 22.648438 10.554688 C 23.226562 10.515625 23.714844 10.269531 24.171875 9.941406 C 24.195312 9.925781 24.21875 9.910156 24.242188 9.894531 C 24.382812 9.804688 24.519531 9.714844 24.660156 9.621094 C 24.6875 9.609375 24.710938 9.601562 24.734375 9.589844 C 24.808594 9.589844 24.882812 9.585938 24.957031 9.585938 C 25.148438 9.644531 25.261719 9.792969 25.378906 9.945312 Z M 25.378906 9.945312 " fill-opacity="1" fill-rule="evenodd"/></g><path fill="#FFFFFF" d="M 17.316406 7.964844 C 17.582031 7.453125 18.003906 7.148438 18.570312 7.046875 C 18.601562 7.046875 18.632812 7.042969 18.664062 7.042969 C 18.695312 7.042969 18.730469 7.046875 18.765625 7.046875 C 19.507812 7.082031 19.980469 7.484375 20.253906 8.148438 C 20.390625 8.828125 20.242188 9.421875 19.667969 9.847656 C 18.898438 10.421875 17.722656 10.207031 17.257812 9.105469 C 17.261719 9.0625 17.238281 9.046875 17.203125 9.035156 C 17.207031 9.019531 17.203125 9 17.199219 8.984375 C 17.207031 8.640625 17.171875 8.292969 17.316406 7.964844 Z M 17.316406 7.964844 " fill-opacity="1" fill-rule="evenodd"/><g clip-path="url(#132bd90a28)"><path fill="#FFFFFF" d="M 14.5625 6.464844 C 14.582031 6.464844 14.597656 6.460938 14.617188 6.457031 C 15.222656 6.40625 15.722656 6.617188 16.117188 7.070312 C 16.132812 7.089844 16.148438 7.109375 16.160156 7.132812 C 16.324219 7.429688 16.421875 7.742188 16.425781 8.082031 C 16.421875 8.144531 16.417969 8.203125 16.414062 8.261719 C 16.367188 8.316406 16.355469 8.375 16.367188 8.445312 C 16.148438 9.003906 15.78125 9.40625 15.167969 9.523438 C 14.414062 9.667969 13.730469 9.304688 13.421875 8.605469 C 13.398438 8.550781 13.375 8.5 13.351562 8.445312 C 13.359375 8.378906 13.347656 8.316406 13.300781 8.261719 C 13.296875 8.203125 13.292969 8.144531 13.289062 8.082031 C 13.339844 7.222656 13.707031 6.757812 14.5625 6.464844 Z M 14.5625 6.464844 " fill-opacity="1" fill-rule="evenodd"/></g><path fill="#FFFFFF" d="M 10.648438 7.0625 C 10.871094 7.0625 11.089844 7.066406 11.3125 7.066406 C 11.464844 7.128906 11.621094 7.191406 11.773438 7.253906 C 12.019531 7.441406 12.222656 7.660156 12.386719 7.921875 C 12.433594 8.09375 12.476562 8.269531 12.523438 8.445312 C 12.484375 9.300781 12.152344 9.832031 11.503906 10.0625 C 10.804688 10.308594 9.992188 10.023438 9.636719 9.40625 C 9.242188 8.71875 9.390625 7.886719 9.992188 7.394531 C 10.050781 7.34375 10.113281 7.296875 10.175781 7.246094 C 10.332031 7.183594 10.492188 7.125 10.648438 7.0625 Z M 10.648438 7.0625 " fill-opacity="1" fill-rule="evenodd"/></svg>