<svg width="18" height="18" viewBox="0 0 18 18" fill="none" xmlns="http://www.w3.org/2000/svg">
<g clip-path="url(#clip0_56_48)">
<path fill-rule="evenodd" clip-rule="evenodd" d="M8.98274 1.3103H9.06704C10.762 1.3103 12.0903 1.31029 13.1267 1.44926C14.1875 1.5915 15.0246 1.88834 15.6816 2.54362C16.3386 3.19889 16.6362 4.03374 16.7789 5.09174C16.9182 6.12538 16.9182 7.45016 16.9182 9.14061V11.3796C16.9182 14.514 14.3704 17.055 11.2277 17.055H8.98274C7.28781 17.055 5.9595 17.055 4.92311 16.9161C3.8623 16.7738 3.02524 16.477 2.36821 15.8217C1.71119 15.1664 1.41357 14.3315 1.27095 13.2735C1.13161 12.2399 1.13162 10.9151 1.13162 9.22467V9.14061C1.13162 7.45016 1.13161 6.12538 1.27095 5.09174C1.41357 4.03374 1.71119 3.19889 2.36821 2.54362C3.02524 1.88834 3.8623 1.5915 4.92311 1.44926C5.9595 1.31029 7.28781 1.3103 8.98274 1.3103ZM5.06987 2.53793C4.13119 2.6638 3.56528 2.90318 3.14701 3.32035C2.72874 3.73751 2.48871 4.30192 2.36251 5.23811C2.23418 6.1901 2.23301 7.44104 2.23301 9.18264C2.23301 10.9242 2.23418 12.1752 2.36251 13.1272C2.48871 14.0633 2.72874 14.6277 3.14701 15.0449C3.56528 15.4621 4.13119 15.7015 5.06987 15.8273C6.02439 15.9553 7.27866 15.9565 9.02489 15.9565H10.6773C10.6798 14.956 10.7016 14.2987 10.8836 13.74C11.3012 12.458 12.3089 11.4529 13.5943 11.0364C14.1546 10.8549 14.8136 10.8331 15.8168 10.8306V9.18264C15.8168 7.44104 15.8156 6.1901 15.6872 5.23811C15.5611 4.30192 15.3211 3.73751 14.9028 3.32035C14.4845 2.90318 13.9186 2.6638 12.9799 2.53793C12.0254 2.40993 10.7711 2.40877 9.02489 2.40877C7.27866 2.40877 6.02439 2.40993 5.06987 2.53793ZM15.7839 11.9298C14.7875 11.934 14.316 11.9575 13.9346 12.0811C12.9846 12.389 12.2398 13.1318 11.9311 14.0794C11.8071 14.4597 11.7836 14.93 11.7793 15.9238C13.8728 15.6736 15.5331 14.0177 15.7839 11.9298Z" fill="#D4D4D8"/>
</g>
<defs>
<clipPath id="clip0_56_48">
<rect width="17.6222" height="17.5755" fill="white" transform="translate(0.213806 0.394897)"/>
</clipPath>
</defs>
</svg>
