<svg width="22" height="22" viewBox="0 0 22 22" fill="none" xmlns="http://www.w3.org/2000/svg">
<path d="M14.9242 0H6.11061C2.28228 0 0 2.28228 0 6.11061V14.9242C0 18.7525 2.28228 21.0348 6.11061 21.0348H14.9242C18.7525 21.0348 21.0348 18.7525 21.0348 14.9242V6.11061C21.0348 2.28228 18.7525 0 14.9242 0ZM12.8943 10.5174C13.7147 10.8014 14.8085 11.4009 14.8085 13.2835C14.8085 14.9032 13.5464 16.2178 11.9898 16.2178H11.3062V16.8279C11.3062 17.2591 10.9486 17.6167 10.5174 17.6167C10.0862 17.6167 9.7286 17.2591 9.7286 16.8279V16.2178H9.34998C7.62512 16.2178 6.22631 14.7559 6.22631 12.968C6.22631 12.5368 6.57338 12.1792 7.01511 12.1792C7.44633 12.1792 7.80392 12.5368 7.80392 12.968C7.80392 13.8935 8.49807 14.6402 9.34998 14.6402H9.7286V11.0748L8.14047 10.5174C7.32012 10.2334 6.22631 9.63395 6.22631 7.75133C6.22631 6.13165 7.4884 4.81697 9.04497 4.81697H9.7286V4.20696C9.7286 3.77575 10.0862 3.41816 10.5174 3.41816C10.9486 3.41816 11.3062 3.77575 11.3062 4.20696V4.81697H11.6848C13.4097 4.81697 14.8085 6.27889 14.8085 8.06685C14.8085 8.49807 14.4614 8.85566 14.0197 8.85566C13.5885 8.85566 13.2309 8.49807 13.2309 8.06685C13.2309 7.14132 12.5368 6.39458 11.6848 6.39458H11.3062V9.95999L12.8943 10.5174Z" fill="white"/>
</svg>
