<svg width="15" height="22" viewBox="0 0 15 22" fill="none" xmlns="http://www.w3.org/2000/svg">
<path d="M7.40428 0C4.64872 0 2.40851 2.24021 2.40851 4.99577C2.40851 7.69874 4.52251 9.88636 7.27807 9.98102C7.36221 9.9705 7.44635 9.9705 7.50945 9.98102C7.53049 9.98102 7.541 9.98102 7.56204 9.98102C7.57256 9.98102 7.57256 9.98102 7.58307 9.98102C10.2755 9.88636 12.3895 7.69874 12.4 4.99577C12.4 2.24021 10.1598 0 7.40428 0Z" fill="white"/>
<path d="M12.7471 12.7786C9.81274 10.8224 5.02732 10.8224 2.07193 12.7786C0.736218 13.6726 0 14.8821 0 16.1758C0 17.4694 0.736219 18.6684 2.06141 19.5519C3.53385 20.5405 5.46905 21.0348 7.40425 21.0348C9.33946 21.0348 11.2747 20.5405 12.7471 19.5519C14.0723 18.6579 14.8085 17.4589 14.8085 16.1547C14.798 14.8611 14.0723 13.6621 12.7471 12.7786Z" fill="white"/>
</svg>
